<svg xmlns="http://www.w3.org/2000/svg" version="1.1" xmlns:xlink="http://www.w3.org/1999/xlink" xmlns:svgjs="http://svgjs.dev/svgjs" viewBox="0 0 9.390532352160852 9.390532352160852"><g transform="matrix(1,0,0,1,3.1073692936708484,2.9966484850970647)"><rect width="9.390532352160852" height="9.390532352160852" x="-3.107369293670849" y="-2.996648485097065" fill="#efe0e2"></rect><g><path d=" M -1.2809354560345232 0.29957052076443025 L -1.100916866029654 -0.033947555586250955 L -1.0604370995068801 -0.012098333580382814 L -1.2404556895117493 0.32141974277029833 L -1.2809354560345232 0.29957052076443025 M -0.9656873593471327 0.4629095471328326 L -0.9899114967884212 0.5077892882776472 L -1.605907943874112 0.1753011273187859 L -1.3836158591187588 -0.23653649730421877 L -1.343136092595985 -0.21468727529835074 L -1.5412040399100495 0.15227060817983928 L -0.9656873593471327 0.4629095471328326 M -0.7460010822708552 0.05371610566529533 L -1.0486873930282985 -0.654849344579104 L -1.0144518873072983 -0.6926505369945207 L -0.27945840626898877 -0.46141779097616775 L -0.3163790496935969 -0.4206517991556203 L -1.0155710158246252 -0.6437450408681986 L -1.0008027584547818 -0.6600514375964176 L -0.709080438846247 0.012950113844747903 L -0.7460010822708552 0.05371610566529533 M -0.8128058907171112 -0.16598850868874826 L -0.833265649081933 -0.2074541364743384 L -0.5519974746290093 -0.5180168741617817 L -0.5087140457835206 -0.5017520413198026 L -0.8128058907171112 -0.16598850868874826 M -0.14402450292423769 -0.551169200615401 L -0.5369433483853084 -1.1304918921108569 L -0.4947355522906395 -1.1591188365658778 L -0.1276370881027248 -0.6178659219401232 L 0.20588726142965913 -0.8440749143984254 L 0.2317076427028152 -0.806005137528724 L -0.14402450292423769 -0.551169200615401 M 0.36015439521394765 -1.056230093448125 L 0.33562721356435304 -1.115377514020182 L 0.5902538142440823 -1.7025421367847742 L 0.6482387740866363 -1.724490814012739 L 0.47078902043753645 -1.3119564700728996 L 0.4546413617058081 -1.2726976733837037 L 0.36015439521394765 -1.056230093448125 M 0.38166371192809956 -0.8751159048971165 L 0.13385606580591447 -1.5297848063453081 L 0.18155337148285416 -1.5478393634199243 L 0.4293610176050392 -0.8931704619717329 L 0.38166371192809956 -0.8751159048971165 M 0.8577015274097131 -1.0553074647202483 L 0.43565658946661745 -1.280480887567192 L 0.4552916303868544 -1.327475197521277 L 0.9156864872522672 -1.0772561419482132 L 0.8577015274097131 -1.0553074647202483 M 1.3530419934087115 -1.1206989125348321 Q 1.275311208615535 -1.1142239534278684 1.2068409059862941 -1.135112171586921 Q 1.138370603357053 -1.1560003897459734 1.0850153551012842 -1.2002238844469268 Q 1.0316601068455151 -1.2444473791478803 0.9993990036171185 -1.306483426882135 Q 0.9671379003887219 -1.3685194746163898 0.9608289658742445 -1.4442571623635876 Q 0.9545200313597669 -1.5199948501107854 0.9760725483728004 -1.5865135618421689 Q 0.9976250653858338 -1.6530322735735525 1.0429281209060197 -1.7054739856025751 Q 1.0882311764262058 -1.757915697631598 1.152301827354561 -1.7898445511909862 Q 1.2163724782829162 -1.8217734047503742 1.294103263076093 -1.828248363857338 Q 1.3718340478692697 -1.8347233229643016 1.4403043504985105 -1.813835104805249 Q 1.5087746531277513 -1.7929468866461966 1.561590120973904 -1.7491801600586165 Q 1.614405588820057 -1.7054134334710362 1.6471649663099481 -1.6434188918849029 Q 1.6799243437998395 -1.5814243502987697 1.6863162906105602 -1.5046901140285824 Q 1.6927082374212805 -1.4279558777583952 1.6706574461467527 -1.36139565987889 Q 1.6486066548722245 -1.294835441999385 1.6037603674654115 -1.2429335103799786 Q 1.5589140800585988 -1.191031578760572 1.4948434291302437 -1.159102725201184 Q 1.4307727782018882 -1.127173871641796 1.3530419934087115 -1.1206989125348321 M 1.3491404154852846 -1.1675366931153361 Q 1.4159091665255774 -1.1730985169636254 1.470803149522384 -1.2007508338782409 Q 1.5256971325191904 -1.2284031507928561 1.564065654042536 -1.273744705200624 Q 1.6024341755658813 -1.319086259608392 1.6212043772665181 -1.3768437658575143 Q 1.6399745789671551 -1.4346012721066366 1.634495767415109 -1.5003734746239399 Q 1.6289339435668198 -1.5671422256642327 1.6009078708350741 -1.6204998797284336 Q 1.572881798103329 -1.6738575337926342 1.527540243695561 -1.7122260553159796 Q 1.482198689287793 -1.7505945768393252 1.4234861406638029 -1.7687834919822243 Q 1.3647735920398125 -1.7869724071251234 1.2980048409995197 -1.781410583276834 Q 1.231236089959227 -1.7758487594285446 1.1763421069624205 -1.7481964425139294 Q 1.1214481239656142 -1.720544125599314 1.082581328180774 -1.6751610650434245 Q 1.0437145323959338 -1.629778004487535 1.0249028245471754 -1.5725187724999075 Q 1.0060911166984168 -1.5152595405122797 1.011652940546706 -1.448490789471987 Q 1.0171317520987524 -1.3827185869546836 1.0451993309786194 -1.3288626586289882 Q 1.0732669098584862 -1.2750067303032928 1.119106738527749 -1.2366797149280688 Q 1.1649465671970116 -1.198352699552845 1.2236591158210017 -1.180163784409946 Q 1.2823716644449918 -1.1619748692670469 1.3491404154852846 -1.1675366931153361 M 1.9272228712370474 -1.1294751284074032 L 2.079739341303039 -1.8126579197294692 L 2.1217062841985377 -1.8032890508539867 L 2.4699280291095005 -1.0728702556610068 L 2.44748059453749 -1.0778815111060323 L 2.5862705822975425 -1.6995778512091122 L 2.6360453285224357 -1.688465936961447 L 2.483528858456444 -1.0052831456393811 L 2.44253789097712 -1.0144341338433407 L 2.0933401706499826 -1.7450708097078436 L 2.1157876052219935 -1.740059554262818 L 1.9769976174619406 -1.1183632141597382 L 1.9272228712370474 -1.1294751284074032 M 2.6388183431434555 -0.956254249109103 L 3.256504957664072 -1.416848697883792 L 3.3012878243152093 -1.3924459346282418 L 3.249094663193272 -0.6237067890579779 L 3.2007994148440058 -0.6500234945296497 L 3.2534867558785487 -1.382050846542339 L 3.272804855218255 -1.3715241643536702 L 2.6871135914927216 -0.9299375436374312 L 2.6388183431434555 -0.956254249109103 M 2.8366952573822326 -1.0727777523663418 L 2.8721977584225855 -1.1024016012027058 L 3.2401197413015392 -0.90191615406397 L 3.234472484695278 -0.8560237963905726 L 2.8366952573822326 -1.0727777523663418 M 3.374473726001611 -0.5198038883662612 L 3.8658807318158876 -1.0183208435810733 L 3.8965039162076547 -0.9881344132239107 L 3.804694913276936 -0.18418098983368264 L 3.788315070462735 -0.2003272200247232 L 4.2354954457537275 -0.6539776492702023 L 4.27181596677652 -0.6181751388465907 L 3.7804089609622435 -0.11965818363177849 L 3.750497943649355 -0.1491426039806351 L 3.8415947795011953 -0.9537980373791692 L 3.857974622315396 -0.9376518071881287 L 3.410794247024404 -0.4840013779426496 L 3.374473726001611 -0.5198038883662612 M 4.119272893324804 0.05753300951322056 L 4.17403144786742 0.024344145350622473 L 4.792946809708964 0.1872575422108903 L 4.823411041961135 0.2412568991819296 L 4.388787932859146 0.1282270224478534 L 4.347538855416965 0.11820137482942097 L 4.119272893324804 0.05753300951322056 M 3.943493661018844 0.1061813547052964 L 4.553163820369288 -0.23776965459341887 L 4.578223108189622 -0.19335082869788656 L 3.968552948839179 0.1506001806008287 L 3.943493661018844 0.1061813547052964 M 4.193595180637481 0.5494986562901188 L 4.352361879833287 0.09825799408593719 L 4.401784853006746 0.11056123441909868 L 4.224059412889654 0.6034980132611582 L 4.193595180637481 0.5494986562901188" fill="#382d5e" fill-rule="nonzero"></path></g><g><path d=" M -1.8735066245896257 2.5219942133962148 L -1.107293297766903 2.594912920181618 L -1.0833692643471786 2.663881323272685 L -1.639837640640811 3.195617109340473 L -1.6654003064865441 3.12192484302399 L -1.1410362653162411 2.6288453845920365 L -1.13120447076019 2.65718856394453 L -1.8482716852290946 2.594741707067614 L -1.8735066245896257 2.5219942133962148 M -1.6555406028236694 2.579750713943968 L -1.5916442614442454 2.5808721230236946 L -1.458259581967152 2.9653945895725204 L -1.507735957997701 3.0058431768764513 L -1.6555406028236694 2.579750713943968 M -1.489996887257691 3.456834479805827 L -0.9006458182305257 3.0791238532191003 L -0.8607164091342147 3.141426680516258 L -1.396183951850325 3.484603764100769 L -1.1846660009617582 3.814640362755982 L -1.2385495272728133 3.849173905758197 L -1.489996887257691 3.456834479805827 M -1.0682506375581073 4.039221768401381 L -0.5479300886979612 3.570962730652107 L -0.4984284189930379 3.6259680458173222 L -1.018748967853184 4.094227083566596 L -1.0682506375581073 4.039221768401381 M -0.7396616373463037 4.390603542010962 L -0.3383110289139937 3.8170900817408353 L -0.2883334273761684 3.8520649204756507 L -0.3392093201155978 4.48287998334112 L -0.36542707829937504 4.464532526955643 L 0.20734606328587013 4.198946517763576 L 0.2573236648236954 4.233921356498391 L -0.14402694360861457 4.807434816768518 L -0.20219759457887032 4.766726397913241 L 0.13551027451631625 4.284155786343091 L 0.14943845855144788 4.293902872547877 L -0.376477590898598 4.536134804651918 L -0.4051532639121044 4.516067274230302 L -0.35934991120247917 3.9378475470672125 L -0.3437831172808614 3.94874134929609 L -0.681490986376048 4.431311960866239 L -0.7396616373463037 4.390603542010962 M 0.45398837943799275 4.644809567033375 L 0.8053870474912105 4.760649871290678 L 0.7856628875771292 4.820482617472712 L 0.4342642195239115 4.70464231321541 L 0.45398837943799275 4.644809567033375 M 0.36046073367939 4.954075762209721 L 0.7602954343561595 5.0858832435403265 L 0.7402581925386802 5.146665715852235 L 0.27014375825126713 4.991690173670168 L 0.4893010906299477 4.326881882758674 L 0.9451696329692574 4.47716119638977 L 0.9251323911517779 4.537943668701677 L 0.5395435824231118 4.410832415922043 L 0.36046073367939 4.954075762209721 M 1.1141505533505618 5.219028925596844 L 1.150066735250263 4.519950941479373 L 1.2109863881519283 4.523080780187776 L 1.662154427771529 5.155062109046316 L 1.6301965770690159 5.153420226445187 L 1.6613923464904707 4.54622106309744 L 1.7342961934055783 4.549966607781266 L 1.6983800115058774 5.249044591898738 L 1.637460358604212 5.245914753190335 L 1.1872910018190648 4.61398473316308 L 1.2192488525215777 4.615626615764209 L 1.1880530831001233 5.222825779111956 L 1.1141505533505618 5.219028925596844 M 2.2471954659417346 5.176818904126047 L 2.1253094414830995 4.55260756408033 L 1.883869206182398 4.599752158446406 L 1.8716039458595166 4.536938438693378 L 2.4271127799253587 4.4284675427128946 L 2.43937804024824 4.491281262465923 L 2.1979378049475384 4.538425856831998 L 2.3198238294061735 5.162637196877715 L 2.2471954659417346 5.176818904126047 M 2.70612633694765 5.076313062524518 L 2.712829793342865 4.30666699862738 L 2.7794832481141953 4.27689592261313 L 3.35713884724845 4.785535292686706 L 3.285920087355796 4.817345483496453 L 2.7495404620936963 4.33736434052968 L 2.7769322928216402 4.325129651756701 L 2.7764320358160397 5.04491069467387 L 2.70612633694765 5.076313062524518 M 2.7449091326534427 4.854184958140487 L 2.7405270976413094 4.790429191584415 L 3.1121429345170815 4.624445247230994 L 3.156699654596866 4.670256803586696 L 2.7449091326534427 4.854184958140487 M 3.7636442803036876 4.498763849342983 Q 3.7020586421500377 4.546630426128959 3.629956451944546 4.570374355196641 Q 3.5578542617390547 4.594118284264323 3.5025144802078834 4.586469194116979 L 3.490432283152181 4.523667756917602 Q 3.541738249510901 4.5293859573336315 3.606120730483459 4.510375535354669 Q 3.6705032114560168 4.491365113375706 3.7249828144380914 4.449021603141959 Q 3.7770937390296413 4.408519115092286 3.799734834752819 4.3700239103980145 Q 3.8223759304759963 4.331528705703742 3.820589466296366 4.297454396529015 Q 3.818803002116736 4.263380087354288 3.7979380840305415 4.236535065595005 Q 3.772777447514836 4.204163127591163 3.738880948588424 4.1988454814453835 Q 3.7049844496620112 4.193527835299604 3.6660829161589943 4.205398837410362 Q 3.627181382655977 4.217269839521121 3.5841112326596485 4.236813692245028 Q 3.54104108266332 4.256357544968935 3.4970504215749534 4.27471705849758 Q 3.453059760486587 4.293076572026225 3.4097745658529846 4.300122274654858 Q 3.366489371219382 4.307167977283492 3.326762968710062 4.294349516234383 Q 3.2870365662007424 4.281531055185274 3.252670818764657 4.237315725228808 Q 3.2207597675740063 4.196258633126375 3.2157778311513834 4.145036759776399 Q 3.2107958947287605 4.093814886426424 3.2395384215227305 4.037912139146009 Q 3.268280948316701 3.9820093918655943 3.338551740568942 3.927392400404673 Q 3.3851357489159337 3.891185630784512 3.4410558198118344 3.8686202663735965 Q 3.4969758907077355 3.846054901962681 3.547933935954487 3.843177815827359 L 3.56440171898694 3.905103675708317 Q 3.510461321288305 3.909032224564207 3.461997131522113 3.928968932173703 Q 3.4135329417559213 3.9489056397831988 3.3764236469710296 3.9777483206670565 Q 3.326681400770005 4.016409786532652 3.304741921809261 4.054992933927999 Q 3.2828024428485167 4.093576081323346 3.2848957440588262 4.128045170229828 Q 3.2869890452691357 4.162514259136309 3.3090813114780477 4.190938399822609 Q 3.3342419479937533 4.22331033782645 3.3681384469201654 4.228627983972229 Q 3.402034945846578 4.23394563011801 3.4410244220506696 4.221373011244817 Q 3.4800138982547617 4.208800392371625 3.52308404825109 4.189256539647718 Q 3.5661541982474185 4.169712686923811 3.6100569166347105 4.1520547901576 Q 3.653959635022002 4.134396893391389 3.6969379926249255 4.126956411031001 Q 3.7399163502278485 4.119515928670613 3.779335915706489 4.131939609987968 Q 3.8187554811851294 4.144363291305322 3.852507554559856 4.187789061798281 Q 3.883804931689148 4.228056594437205 3.8883920883800167 4.27958530481786 Q 3.8929792450708853 4.331114015198515 3.8638419385451614 4.387323599509609 Q 3.834704632019437 4.443533183820703 3.7636442803036876 4.498763849342983 M 4.415619791364138 3.8384023549277537 Q 4.367940454374635 3.901391884408782 4.3060723812349035 3.939218350354954 Q 4.244204308095172 3.9770448163011256 4.175658493401371 3.9872414475077074 Q 4.107112678707569 3.9974380787142896 4.039087281002029 3.980436747383977 Q 3.971061883296489 3.963435416053664 3.9096670254478916 3.9169631508866796 Q 3.848272167599294 3.870490885719695 3.8134412450130286 3.809636084497527 Q 3.778610322426763 3.748781283275359 3.7698145629476563 3.6800416686766018 Q 3.7610188034685494 3.611302054077844 3.7803263103932263 3.5418868527430245 Q 3.7996338173179036 3.4724716514082052 3.847916690218667 3.4086847861109613 Q 3.89559602720817 3.3456952566299325 3.9571623323922718 3.3082674585918683 Q 4.018728637576373 3.2708396605538046 4.086875784362067 3.2603412613915927 Q 4.1550229311477604 3.2498428622293813 4.223446996761409 3.2671459615153235 Q 4.291871062375057 3.2844490608012658 4.353265920223653 3.3309213259682506 Q 4.414660778072251 3.377393591135235 4.449890368566624 3.438550160313033 Q 4.485119959060998 3.4997067294908306 4.493517050631997 3.568144576133958 Q 4.501914142202996 3.636582422777086 4.4826066352783185 3.7059976241119053 Q 4.463299128353642 3.775412825446725 4.415619791364138 3.8384023549277537 M 4.362995627493912 3.798568984784624 Q 4.401018389903263 3.748336828363044 4.416164841107014 3.6927033401034324 Q 4.431311292310765 3.6370698518438203 4.423656196065003 3.581735418608554 Q 4.4160010998192405 3.5264009853732885 4.387418759515634 3.4771739620754203 Q 4.358836419212027 3.427946938777552 4.308604262790448 3.3899241763682015 Q 4.258372106368868 3.35190141395885 4.203234185969841 3.3377571665744665 Q 4.148096265570816 3.323612919190083 4.092761832335549 3.331268015435845 Q 4.037427399100284 3.3389231116816074 3.9879955077992637 3.3686045557570594 Q 3.938563616498244 3.398285999832511 3.9005408540888933 3.4485181562540905 Q 3.862518091679542 3.4987503126756705 3.8470698725201613 3.55478246884339 Q 3.8316216533607803 3.61081462501111 3.8392767496065425 3.666149058246376 Q 3.846931845852305 3.721483491481642 3.875212418200282 3.7711091826876175 Q 3.9034929905482585 3.8207348738935933 3.953725146969838 3.8587576363029443 Q 4.003159967575202 3.896176862801036 4.058998323837966 3.9102242102329416 Q 4.11483668010073 3.9242715576648473 4.1701711133359955 3.916616461419085 Q 4.225505546571262 3.908961365173323 4.275239205827911 3.878881253189763 Q 4.324972865084561 3.8488011412062035 4.362995627493912 3.798568984784624 M 4.811814245849727 3.1899552378850795 L 4.154453836410841 2.949378239603158 L 4.17541840340398 2.892093975352055 L 4.912381002131139 2.6474735999183783 L 4.901383196495393 2.6775243614927273 L 4.330418726582761 2.468566054413573 L 4.355507470689304 2.4000127545720886 L 5.012867880128191 2.6405897528540105 L 4.991903313135052 2.6978740171051134 L 4.2552843958340105 2.941555306239592 L 4.266282201469755 2.9115045446652426 L 4.837246671382388 3.1204628517443975 L 4.811814245849727 3.1899552378850795" fill="#382d5e" fill-rule="nonzero"></path></g><g clip-path="url(#SvgjsClipPath1005)"><g clip-path="url(#SvgjsClipPath1001123697fc-b4f3-4f22-8e98-8d4043f52a7b)"><path d=" M 2.974847060679826 0.8747678231484936 C 2.764012937177793 1.1661170727703807 2.403631309380571 1.288826201692286 2.0548003747819767 1.1929554481436655 C 2.5340182520168577 1.5303036347977401 2.982524874394208 1.2121160098025676 2.974847060679825 0.8747678231484936 L 2.974847060679825 0.8747678231484936 Z" fill="#382d5e" transform="matrix(1,0,0,1,0,0)" fill-rule="evenodd"></path></g><g clip-path="url(#SvgjsClipPath1001123697fc-b4f3-4f22-8e98-8d4043f52a7b)"><path d=" M 2.0240891199244455 1.3539177551292656 C 2.3000827421175676 1.771781067903194 2.951813619536677 1.6606226321799185 3.0668449347442 1.1660491275162712 C 2.76781787140793 1.4919145662258264 2.399826375150434 1.534040623773767 2.0240891199244455 1.3539177551292656 L 2.0240891199244455 1.3539177551292656 Z" fill="#382d5e" transform="matrix(1,0,0,1,0,0)" fill-rule="evenodd"></path></g><g clip-path="url(#SvgjsClipPath1001123697fc-b4f3-4f22-8e98-8d4043f52a7b)"><path d=" M 3.1741984362373397 1.3846290099867964 C 3.032328745656532 1.6031409472032119 2.7754956851223125 1.741137758299773 2.491824249214808 1.718172262410734 C 2.4841464355004255 1.718172262410734 2.4764686217860423 1.718172262410734 2.46879080807166 1.7143673281805976 C 2.5147897451038466 1.7488835172682649 2.56466156162028 1.77572189264155 2.6182703671127396 1.798687388530589 C 2.8981368687901083 1.9098458242538652 3.200968866356515 1.6875289528073127 3.17413049098323 1.3885018894710428 L 3.17413049098323 1.384696955240906 L 3.17413049098323 1.384696955240906 Z" fill="#382d5e" transform="matrix(1,0,0,1,0,0)" fill-rule="evenodd"></path></g><g clip-path="url(#SvgjsClipPath1001123697fc-b4f3-4f22-8e98-8d4043f52a7b)"><path d=" M 2.139120435131968 1.5992680677189657 C 2.30782850108606 2.1244848819860342 2.974847060679826 2.3736401288058713 3.158842808808574 1.9212606269442742 L 3.158842808808574 1.9174556927141377 C 2.7869784330668312 2.0248091942072772 2.384470747721668 1.9021000652853723 2.139120435131968 1.5992680677189657 L 2.139120435131968 1.5992680677189657 Z" fill="#382d5e" transform="matrix(1,0,0,1,0,0)" fill-rule="evenodd"></path></g><g clip-path="url(#SvgjsClipPath1001123697fc-b4f3-4f22-8e98-8d4043f52a7b)"><path d=" M 3.0170410634818765 2.358352446631215 C 2.8253675016387456 2.3545475124010786 2.641371753509998 2.300870761654509 2.4803415012702885 2.208872887590135 C 2.5148576903579563 2.2586767588524586 2.5455009999613774 2.312353509599028 2.572339375334663 2.366030260345598 C 2.668210128883283 2.546221074244209 2.925043189417502 2.542348194759963 3.0131681839976308 2.3622253261154613 L 3.0169731182277673 2.3584203918853244 L 3.0169731182277673 2.3584203918853244 Z" fill="#382d5e" transform="matrix(1,0,0,1,0,0)" fill-rule="evenodd"></path></g><g clip-path="url(#SvgjsClipPath1001123697fc-b4f3-4f22-8e98-8d4043f52a7b)"><path d=" M 1.9973186898052704 1.8676518214518143 C 2.2120256927915496 2.250998945138076 2.2963457531415408 2.6918956990551526 2.234991188680588 3.1289195734879836 C 2.238796122910725 3.1289195734879836 2.238796122910725 3.125114639257847 2.242669002394971 3.125114639257847 C 2.488019314984671 3.0100833240503246 2.583822123279182 2.711056260714055 2.4611809396113866 2.4695788276086006 C 2.346149624403864 2.2395841424476655 2.1889922516484015 2.036359887405906 1.997318689805271 1.8677197667059238 L 1.997318689805271 1.8677197667059238 Z" fill="#382d5e" transform="matrix(1,0,0,1,0,0)" fill-rule="evenodd"></path></g><g clip-path="url(#SvgjsClipPath1001123697fc-b4f3-4f22-8e98-8d4043f52a7b)"><path d=" M 1.3455878123861604 1.626106443092251 C 1.7788067525888551 2.105324320327132 1.9781581281463685 2.753182318261996 1.882287374597748 3.3972353819667225 C 2.020284185694309 3.2438829434413967 2.096994377584027 3.0484044473681293 2.096994377584027 2.8451801923263695 C 2.096994377584027 2.7033105017455625 2.0586732542662234 2.5691865701332475 1.9973186898052704 2.4541552549257255 C 1.9935137555751339 2.5001541919579124 1.9819630623765048 2.542348194759963 1.9704803144319858 2.58834713179215 C 1.8861602540819942 2.239516197193556 1.7059694401833831 1.9059729447696183 1.3455878123861604 1.6261064430922505 L 1.3455878123861604 1.6261064430922505 Z" fill="#382d5e" transform="matrix(1,0,0,1,0,0)" fill-rule="evenodd"></path></g><g clip-path="url(#SvgjsClipPath1001123697fc-b4f3-4f22-8e98-8d4043f52a7b)"><path d=" M 1.031205121621125 3.205561820123592 L 1.0350100558512618 3.205561820123592 C 1.1921674286067248 3.255365691385916 1.3608754945608168 3.167240696805788 1.41067936582314 3.010083324050325 C 1.4949994261731314 2.7455724498017227 1.5026772398875141 2.458028134409972 1.4337128069662883 2.1858394464469866 C 1.437517741196425 2.5577038221887287 1.2880381821553448 2.9295681979304704 1.0312051216211249 3.2055618201235925 L 1.0312051216211249 3.2055618201235925 Z" fill="#382d5e" transform="matrix(1,0,0,1,0,0)" fill-rule="evenodd"></path></g><g clip-path="url(#SvgjsClipPath1001123697fc-b4f3-4f22-8e98-8d4043f52a7b)"><path d=" M 1.7174521881279026 3.2822040667592005 C 1.840093371795698 3.040658688399637 1.8554489992244634 2.7569872524921317 1.759646190929953 2.5078320056722956 C 1.7481634429854336 2.615185507165435 1.721325067612149 2.7225390086585746 1.6791310648100986 2.818341816953085 C 1.7059694401833834 2.4886714440133932 1.6369370620080481 2.162806005303838 1.4759747550224485 1.8714567556819508 C 1.6101666318888728 2.231838383479174 1.6101666318888728 2.626668255109954 1.4836525687368314 2.9831770034229304 C 1.4299758179902615 3.136529441948257 1.5526849469121664 3.297559694187966 1.713647253897766 3.2822040667592005 L 1.7174521881279026 3.2822040667592005 Z" fill="#382d5e" transform="matrix(1,0,0,1,0,0)" fill-rule="evenodd"></path></g><g clip-path="url(#SvgjsClipPath1001123697fc-b4f3-4f22-8e98-8d4043f52a7b)"><path d=" M 0.8126931844047095 1.1622441932861347 C 1.3647483740450628 1.1622441932861347 1.8746095608833655 1.430560001764874 2.192797185878538 1.8829395036264702 C 2.192797185878538 1.8829395036264702 1.9244813773997989 1.610750815663485 1.6522926894368135 1.4535934429080222 C 1.663775437381333 1.4919145662258262 1.6791310648100983 1.5302356895436304 1.6906138127546175 1.572429692345681 C 1.5295835605149086 1.4573983771381587 1.387781815188211 1.411399440105972 1.2037181218053536 1.3501128208991289 C 1.6215814345792825 1.4881096319956897 1.9435739938045915 1.852296194023049 2.0202841856943095 2.3046756958846455 C 1.8746095608833657 1.917455692714138 1.5564219358881939 1.6146236951477315 1.1653969984875496 1.4804318182813074 C 1.3532656261005438 1.626106443092251 1.4721018755382023 1.8522961940230493 1.4721018755382023 2.109129254557269 L 1.4721018755382023 2.128289816216171 C 1.3992645631327307 1.940421188603177 1.2689455657505524 1.7832638158477139 1.1002374997964606 1.6759103143545748 C 1.3302321849573953 1.9059049995155095 1.4107473110772502 2.2509309998839666 1.2957159958697277 2.5614408111647564 C 1.3071987438142472 2.3659623150914895 1.2611998067820602 2.1780936874784946 1.1692019327176864 2.0132585010086492 C 1.196040308090971 2.105256375073023 1.2113959355197368 2.1934493149072605 1.2190058039800098 2.2854471889716343 C 1.2535219930676775 2.8183418169530854 0.5826305539896656 3.0828526912016883 0.24908730156572775 2.664989378427759 C 0.2465506787456367 2.662452755607668 0.24399140750750908 2.6598934843695403 0.24140948785134497 2.6573115647133765 C 0.6439171731965083 2.6573115647133765 0.977460425620446 2.3582845013771063 1.0272642968827697 1.9634546297463258 C 1.065585420200574 1.6375891910367708 0.9046231132149741 1.3270793797559814 0.6247566115376062 1.1737269412306548 C 0.6861111759985586 1.166049127516272 0.7473977952054016 1.1622441932861354 0.8126252391506003 1.1622441932861354 L 0.8126252391506003 1.1622441932861354 Z" fill="#382d5e" transform="matrix(1,0,0,1,0,0)" fill-rule="evenodd"></path></g><g clip-path="url(#SvgjsClipPath1001123697fc-b4f3-4f22-8e98-8d4043f52a7b)"><path d=" M 1.8171278759066594 1.0664413849916243 C 1.8094500621922764 1.0626364507614876 1.8017722484778937 1.0587635712772414 1.7940944347635113 1.054958637047105 C 1.6752581853258521 1.016637513729301 1.5564219358881934 1.008959700014918 1.4413906206806713 1.02812026167382 C 1.51803286731628 1.1163132015080572 1.6177085550950363 1.1814727001991465 1.7365448045326952 1.2235987577470875 C 1.8017043032237843 1.2466321988902356 1.8668638019148731 1.258114946834755 1.9320233006059624 1.2619198810648915 C 1.824669799112823 1.219725878262841 1.7365448045326952 1.154566379571752 1.6637074921272232 1.0740512534518976 C 1.7135113633895471 1.0663734397375146 1.767188114136117 1.0625685055073781 1.8170599306525497 1.0663734397375146 L 1.8170599306525497 1.0663734397375146 Z" fill="#382d5e" transform="matrix(1,0,0,1,0,0)" fill-rule="evenodd"></path></g><g clip-path="url(#SvgjsClipPath1001123697fc-b4f3-4f22-8e98-8d4043f52a7b)"><path d=" M 0.6555358116492465 0.30735700607937494 L 0.6555358116492465 0.30735700607937494 C 0.624892502045825 0.33039044722252325 0.6172146883314423 0.3687115705403275 0.6363752499903444 0.3993548801437489 C 0.7092125623958163 0.5143861953512712 0.7552114994280033 0.6561879406779685 0.7514065651978666 0.8057354449731583 C 0.7590843789122494 0.8057354449731583 0.74760163096773 0.8019305107430218 0.7552114994280033 0.8057354449731583 C 0.75901643365814 0.7674143216553541 0.762889313142386 0.7290931983375499 0.762889313142386 0.6945770092498824 C 0.762889313142386 0.5527073186690754 0.7245681898245817 0.41858338705676057 0.6555358116492465 0.30735700607937494 L 0.6555358116492465 0.30735700607937494 Z" fill="#382d5e" transform="matrix(1,0,0,1,0,0)" fill-rule="evenodd"></path></g><g clip-path="url(#SvgjsClipPath1001123697fc-b4f3-4f22-8e98-8d4043f52a7b)"><path d=" M 0.8050153706903269 0.20768131830061823 L 0.8050153706903269 0.20768131830061823 C 0.7704991816026592 0.23071475944376654 0.7552114994280033 0.27284081699170726 0.7704991816026592 0.3111619403095115 C 0.8050153706903269 0.3954820006595027 0.8241759323492289 0.49135275420812274 0.8241759323492289 0.5910284419868794 C 0.8241759323492289 0.6332224447889298 0.8203709981190924 0.6792213818211168 0.8126931844047096 0.7213474393690575 C 0.8395315597779945 0.6447051927334492 0.8548871872067599 0.5603171871293484 0.8548871872067599 0.4759971267793572 C 0.8548871872067599 0.38012637323073717 0.8357266255478579 0.2920013786506093 0.8050833159444364 0.20768131830061817 L 0.8050833159444364 0.20768131830061817 Z" fill="#382d5e" transform="matrix(1,0,0,1,0,0)" fill-rule="evenodd"></path></g><g clip-path="url(#SvgjsClipPath1001123697fc-b4f3-4f22-8e98-8d4043f52a7b)"><path d=" M 1.031205121621125 0.39174501168347564 C 1.031205121621125 0.39174501168347564 1.0350100558512618 0.3879400774533391 1.038882935335508 0.3879400774533391 L 1.0426878695656443 0.38413514322320247 L 1.0503656832800272 0.38033020899306585 C 1.084881872367695 0.3611696473341638 1.123202995685499 0.353491833619781 1.1653969984875494 0.3458140199053983 C 1.215200869749873 0.34200908567526167 1.265072686266306 0.34200908567526167 1.3148765575286296 0.34200908567526167 C 1.2726825547265792 0.31897564453211336 1.2266836176943925 0.30368796235745743 1.1768797464320688 0.30368796235745743 C 1.0695262449389291 0.30368796235745743 0.9737234366444188 0.3727203405327927 0.9353343680725051 0.47239602831154937 C 0.9583678092156532 0.4417527187081279 0.9890111188190748 0.4187192775649796 1.0196544284224962 0.395753781675941 L 1.023459362652633 0.395753781675941 C 1.023459362652633 0.395753781675941 1.0272642968827694 0.3919488474458044 1.0311371763670156 0.3919488474458044 L 1.0311371763670156 0.3919488474458044 Z" fill="#382d5e" transform="matrix(1,0,0,1,0,0)" fill-rule="evenodd"></path></g><g clip-path="url(#SvgjsClipPath1001123697fc-b4f3-4f22-8e98-8d4043f52a7b)"><path d=" M 0.9277244996122317 0.31122988556362113 C 1.2765554342108254 0.05439682502940144 1.7442905635011878 0.008397887997214479 2.1353155009018314 0.18091088818144296 C 2.1353155009018314 0.18471582241157955 2.1353155009018314 0.18091088818144296 2.1353155009018314 0.18091088818144296 C 1.8094500621922764 -0.01844048737607038 1.4452635001649174 -0.06443942440825735 1.0465607490498905 0.10039576206158841 C 0.9622406886998994 0.13491195114925603 0.9123688721834663 0.22303694572938373 0.9277244996122317 0.31122988556362113 L 0.9277244996122317 0.31122988556362113 Z" fill="#382d5e" transform="matrix(1,0,0,1,0,0)" fill-rule="evenodd"></path></g><g clip-path="url(#SvgjsClipPath1001123697fc-b4f3-4f22-8e98-8d4043f52a7b)"><path d=" M 1.4107473110772497 0.936122387609446 C 1.6522926894368135 0.8632850752039742 1.8132549964224132 1.0626364507614876 1.9704803144319858 0.8364466998306893 C 1.7634511251600893 0.9207667601806806 1.575650442801205 0.713805516162894 1.4107473110772497 0.936122387609446 L 1.4107473110772497 0.936122387609446 Z" fill="#382d5e" transform="matrix(1,0,0,1,0,0)" fill-rule="evenodd"></path></g><g clip-path="url(#SvgjsClipPath1001123697fc-b4f3-4f22-8e98-8d4043f52a7b)"><path d=" M 2.315438369546333 0.31890769927800383 C 2.4380795532141284 0.3955499459136123 2.5339503067627485 0.48761576523209577 2.6105925533983574 0.5949013214711257 C 2.553110868421651 0.5489023844389388 2.4955612381908345 0.5067083816368884 2.4304017394997457 0.4683872583190841 C 2.330726051720989 0.4070326938581316 2.227245429712096 0.3572288225958081 2.1236968624490933 0.31890769927800383 C 2.12750179667923 0.3227126335081405 2.135179610393612 0.32658551299238664 2.1390524898778582 0.3303904472225232 C 2.2387281776566152 0.3955499459136123 2.3153704242922237 0.4760650720334669 2.3690471750387934 0.5642580118677042 C 2.3268531722367434 0.5259368885499001 2.280854235204556 0.4914206994622324 2.2310503639422326 0.45690451037456475 C 1.9742173034080128 0.2843915101903362 1.6789951743018792 0.21155419778486442 1.3915188041642381 0.22690982521362993 C 1.6790631195559889 0.1195563237204905 2.027894054154583 0.14258976486363878 2.315438369546333 0.31890769927800383 L 2.315438369546333 0.31890769927800383 Z" fill="#382d5e" transform="matrix(1,0,0,1,0,0)" fill-rule="evenodd"></path></g><g clip-path="url(#SvgjsClipPath1001123697fc-b4f3-4f22-8e98-8d4043f52a7b)"><path d=" M 1.978090182892259 0.7482537599964519 C 1.970412369177876 0.7482537599964519 1.9589296212333567 0.7482537599964519 1.951251807518974 0.7520586942265886 C 1.8362204923114518 0.7674143216553541 1.7250620565881758 0.7558636284567252 1.625386368809419 0.717542505138921 C 1.7097064291594102 0.6523830064478319 1.8132549964224132 0.606384069415645 1.9282183663758259 0.587223507756743 C 1.9895729308367782 0.5757407598122236 2.0547324295278675 0.5757407598122236 2.11608699398882 0.5834185735266064 C 2.00873349249568 0.6064520146697546 1.9167356184313065 0.6485780722176954 1.8362204923114518 0.7137375709087845 C 1.8822194293436387 0.72909319833755 1.9282183663758259 0.7405759462820694 1.978090182892259 0.748253759996452 L 1.978090182892259 0.748253759996452 Z" fill="#382d5e" transform="matrix(1,0,0,1,0,0)" fill-rule="evenodd"></path></g><g clip-path="url(#SvgjsClipPath1001123697fc-b4f3-4f22-8e98-8d4043f52a7b)"><path d=" M 0.39102493740064403 0.9859262588717698 C 0.36038162779722255 0.9936040725861524 0.3258654387095549 1.001281886300535 0.2951541838520239 1.0127646342450545 C 0.21463905773216932 1.1277959494525767 0.16483518646984577 1.2657927605491375 0.15715737275546302 1.4152723195902182 C 0.14947955904108026 1.250437133120372 0.18780068235888445 1.1008896288251822 0.2530281263040831 0.978248445157387 C 0.45618443609173304 0.8977333190375325 0.6708914390780121 0.8823776916087668 0.8817255625800446 0.9207667601806806 C 0.7974055022300535 0.8670900094341107 0.6708914390780119 0.8287688861163067 0.6708914390780119 0.8287688861163067 C 0.6823741870225313 0.663933699646461 0.6095368746170594 0.5604530776375677 0.4792178772348812 0.4645823240889477 C 0.19167356184313064 0.5757407598122235 0 0.8517343820053452 0 1.1584392590559982 C 0 1.3386300729546095 0.06515949869108907 1.5149480073689747 0.18786862761299405 1.649139884235399 C 0.16870806595409193 1.4689490703367878 0.2147070029862789 1.2926311359224225 0.32206050447941836 1.1430836316272326 C 0.697729814451297 1.0280523164197104 1.1155931272252257 1.0510857575628587 1.479779689252585 1.2044381960881851 C 1.4772430664324938 1.2044381960881851 1.4759747550224485 1.2031698846781396 1.4759747550224485 1.2006332618580484 C 1.1654649437416587 0.9706385766971137 0.766762192626632 0.8939283848073956 0.3910928826547536 0.9859262588717698 L 0.3910928826547536 0.9859262588717698 Z M 0.4447016881472138 0.5489023844389389 C 0.4715400635204987 0.5719358255820871 0.4907006251794007 0.5910963872409892 0.5060562526081663 0.617934762614274 C 0.3488988798527033 0.6562558859320782 0.2109020687561424 0.7559315737108349 0.122709128921905 0.8939283848073959 C 0.18019081389861133 0.7405759462820695 0.29522212910613355 0.614061883130028 0.4447016881472138 0.5489023844389389 L 0.4447016881472138 0.5489023844389389 Z" fill="#e37f7c" transform="matrix(1,0,0,1,0,0)" fill-rule="evenodd"></path></g><g clip-path="url(#SvgjsClipPath1001123697fc-b4f3-4f22-8e98-8d4043f52a7b)"><path d=" M 2.786978433066832 0.6792213818211168 C 2.7371745618045082 0.8057354449731583 2.6527865562004074 0.905411132751915 2.5493059341915143 0.9743755656731407 C 2.60678761916822 0.8938604395532861 2.5914999369935647 0.7788970695998735 2.530145372532612 0.7136696256546747 C 2.5033069971593274 0.8593442504656184 2.445825312182621 1.0126966889909448 2.192797185878538 1.0778561876820338 C 2.599177750707948 1.227335746723114 2.856010811242167 0.9206988149265708 2.786978433066832 0.679153436567007 L 2.786978433066832 0.679153436567007 Z" fill="#382d5e" transform="matrix(1,0,0,1,0,0)" fill-rule="evenodd"></path></g><g clip-path="url(#SvgjsClipPath1001123697fc-b4f3-4f22-8e98-8d4043f52a7b)"><path d=" M 2.3767929340072858 0.7252203188533036 C 2.192797185878538 0.828700940862197 2.1506031830764876 0.8057354449731583 2.06241024324225 0.9859262588717694 C 2.215762681767577 0.955282949268348 2.346081679149755 0.9016061985217784 2.3767929340072858 0.7252203188533036 L 2.3767929340072858 0.7252203188533036 Z" fill="#382d5e" transform="matrix(1,0,0,1,0,0)" fill-rule="evenodd"></path></g><g clip-path="url(#SvgjsClipPath1001123697fc-b4f3-4f22-8e98-8d4043f52a7b)"><path d=" M 1.0005618120177036 0.6715435681067341 C 1.0005618120177036 0.5949013214711257 1.0503656832800272 0.5143861953512712 1.1193980614553625 0.48367494049374005 C 1.1884304396306977 0.45303163089031856 1.2881061274094543 0.46064149935059173 1.3915867494183478 0.47219219254922074 C 1.5372613742292913 0.48754781997798624 1.6599025578970867 0.5105133158670249 1.728934936072422 0.3495510088814253 C 1.541066308459428 0.4914206994622324 1.2190737492341193 0.2997471376191018 1.0159174394464692 0.4607094446047014 C 0.9545628749855166 0.5105133158670249 0.9162417516677126 0.587223507756743 0.9162417516677126 0.6754164475909802 C 0.9200466858978492 0.9476051355539654 1.3724261877594455 1.0319251959039566 1.4912624371971046 0.6102569488998911 C 1.5679046838327129 0.6140618831300277 1.6292592482936654 0.5987742009553718 1.6675803716114694 0.5259368885499001 C 1.5564219358881932 0.5949692667252352 1.383908935703965 0.5067763268909979 1.2420392451231579 0.5067763268909979 C 1.1806846806622053 0.5067763268909979 1.1308808093998817 0.5259368885499001 1.0925596860820777 0.5642580118677043 C 1.084881872367695 0.571935825582087 1.0810769381375582 0.5796136392964699 1.0733991244231755 0.5872914530108526 C 1.0733991244231755 0.5910963872409892 1.069594190193039 0.5949692667252353 1.069594190193039 0.5949692667252353 C 1.0581114422485196 0.6141298283841373 1.0542385627642734 0.6409682037574221 1.0542385627642734 0.6601287654163244 C 1.0542385627642734 0.7329660778217962 1.11172024774098 0.7943206422827487 1.1884304396306977 0.7943206422827487 C 1.265140631520416 0.7943206422827487 1.322622316497122 0.7329660778217962 1.322622316497122 0.6601287654163244 C 1.322622316497122 0.6332903900430396 1.3111395685526028 0.6064520146697546 1.299588875353974 0.5872914530108526 C 1.3264272507272588 0.5872914530108526 1.3532656261005438 0.5910963872409892 1.3762311219895824 0.5949692667252353 C 1.4107473110772502 0.7100005819327574 1.345587812386161 0.836514645084799 1.2305564971786387 0.8594801409738376 C 1.1155251819711165 0.8825135821169858 1.0005618120177038 0.7943206422827486 1.0005618120177038 0.6716115133608436 L 1.0005618120177038 0.6716115133608436 Z M 1.1577191847731665 0.587223507756743 L 1.1653969984875492 0.5834185735266064 L 1.1653969984875492 0.5834185735266064 C 1.1884304396306973 0.5834185735266064 1.2037181218053534 0.6025791351855084 1.2037181218053534 0.6217396968444105 C 1.2037181218053534 0.6447731379875588 1.1883624943765878 0.6639336996464608 1.1653969984875492 0.6639336996464608 C 1.1462364368286473 0.6639336996464608 1.1270758751697452 0.6447731379875588 1.1270758751697452 0.6217396968444105 C 1.1270758751697452 0.606384069415645 1.1424315025985106 0.5910963872409891 1.1577191847731665 0.587223507756743 L 1.1577191847731665 0.587223507756743 Z" fill="#382d5e" transform="matrix(1,0,0,1,0,0)" fill-rule="evenodd"></path></g></g><g><path d=" M -2.3498249309907777 1.6986176909833612 A 3.9377218134003553 3.9377218134003553 0 0 1 5.525618695809933 1.6986176909833612 A 3.9377218134003553 3.9377218134003553 0 0 1 -2.3498249309907777 1.6986176909833612 Z M -2.299824930990778 1.6986176909833612 A 3.8877218134003555 3.8877218134003555 0 0 0 5.475618695809933 1.6986176909833612 A 3.8877218134003555 3.8877218134003555 0 0 0 -2.299824930990778 1.6986176909833612 Z" fill="#382d5e" fill-rule="nonzero"></path></g><g transform="matrix(0.12789443366235076,-0.9917877866954132,0.9917877866954132,0.12789443366235076,-2.781221385914874,-0.3437141438050917)"><g clip-path="url(#SvgjsClipPath1006)"><path d=" M -1.5860523362047747 1.6049115646486958 C -1.4773270013771884 1.6049115646486958 -1.3872670070668436 1.5150442448211097 -1.3872670070668436 1.4061262355107647 C -1.3872670070668436 1.2974013385797303 -1.4773270013771884 1.2073415632176614 -1.5860523362047747 1.2073415632176614 C -1.6949705644633954 1.2073415632176614 -1.7848376653427058 1.2974013385797303 -1.7848376653427058 1.4061262355107647 C -1.7848376653427058 1.5150442448211097 -1.6947781089289127 1.6049115646486958 -1.5860523362047747 1.6049115646486958 Z M -1.5860523362047747 1.5658490027521441 L -1.5860523362047747 1.2465983322349028 C -1.4977242227564989 1.2465983322349028 -1.4265244329289126 1.317607637062489 -1.4263317584461541 1.4061262355107647 C -1.4263317584461541 1.4946470234417992 -1.4975315482737401 1.5658490027521441 -1.5860523362047747 1.5658490027521441 Z" fill="#382d5e" transform="matrix(1,0,0,1,0,0)" fill-rule="nonzero"></path></g></g><g transform="matrix(-0.12789443366235076,-0.9917877866954132,-0.9917877866954132,0.12789443366235076,6.768876026309515,5.952053997421237)"><g clip-path="url(#SvgjsClipPath1007)"><path d=" M 4.76184610102393 1.6049115646486958 C 4.870571435851517 1.6049115646486958 4.960631430161861 1.5150442448211094 4.960631430161861 1.4061262355107647 C 4.960631430161861 1.29740133857973 4.870571435851517 1.2073415632176612 4.76184610102393 1.2073415632176612 C 4.65292787276531 1.2073415632176612 4.563060771885999 1.29740133857973 4.563060771885999 1.4061262355107647 C 4.563060771885999 1.5150442448211094 4.653120328299792 1.6049115646486958 4.76184610102393 1.6049115646486958 Z M 4.76184610102393 1.565849002752144 L 4.76184610102393 1.2465983322349026 C 4.850174214472206 1.2465983322349026 4.921374004299793 1.3176076370624887 4.9215666787825505 1.4061262355107647 C 4.9215666787825505 1.494647023441799 4.850366888954965 1.565849002752144 4.76184610102393 1.565849002752144 Z" fill="#382d5e" transform="matrix(1,0,0,1,0,0)" fill-rule="nonzero"></path></g></g></g><defs><clipPath id="SvgjsClipPath1005"><path d=" M 0 0 h 3.175793764819155 v 3.397235381966723 h -3.175793764819155 Z"></path></clipPath><clipPath id="SvgjsClipPath1001123697fc-b4f3-4f22-8e98-8d4043f52a7b"><path d=" M 0 0 L 3.175793764819155 0 L 3.175793764819155 3.397235381966723 L 0 3.397235381966723 Z"></path></clipPath><clipPath id="SvgjsClipPath1006"><path d=" M -1.8925799224116713 1.0921171867176613 h 0.6130551724137931 v 0.63495 h -0.6130551724137931 Z"></path></clipPath><clipPath id="SvgjsClipPath1007"><path d=" M 4.455318514817034 1.0921171867176611 h 0.6130551724137931 v 0.63495 h -0.6130551724137931 Z"></path></clipPath></defs></svg>